<?xml version="1.0" encoding="utf-8" standalone="no"?>
<!DOCTYPE svg PUBLIC "-//W3C//DTD SVG 1.1//EN"
  "http://www.w3.org/Graphics/SVG/1.1/DTD/svg11.dtd">
<!-- Created with matplotlib (https://matplotlib.org/) -->
<svg height="779.787344pt" version="1.1" viewBox="0 0 708.8425 779.787344" width="708.8425pt" xmlns="http://www.w3.org/2000/svg" xmlns:xlink="http://www.w3.org/1999/xlink">
 <metadata>
  <rdf:RDF xmlns:cc="http://creativecommons.org/ns#" xmlns:dc="http://purl.org/dc/elements/1.1/" xmlns:rdf="http://www.w3.org/1999/02/22-rdf-syntax-ns#">
   <cc:Work>
    <dc:type rdf:resource="http://purl.org/dc/dcmitype/StillImage"/>
    <dc:date>2022-02-20T02:12:18.782435</dc:date>
    <dc:format>image/svg+xml</dc:format>
    <dc:creator>
     <cc:Agent>
      <dc:title>Matplotlib v3.3.4, https://matplotlib.org/</dc:title>
     </cc:Agent>
    </dc:creator>
   </cc:Work>
  </rdf:RDF>
 </metadata>
 <defs>
  <style type="text/css">*{stroke-linecap:butt;stroke-linejoin:round;}</style>
 </defs>
 <g id="figure_1">
  <g id="patch_1">
   <path d="M 0 779.787344 
L 708.8425 779.787344 
L 708.8425 -0 
L 0 -0 
z
" style="fill:#ffffff;"/>
  </g>
  <g id="axes_1">
   <g id="patch_2">
    <path d="M 46.964375 405.026562 
L 371.303437 405.026562 
L 371.303437 78 
L 46.964375 78 
z
" style="fill:#eaeaf2;"/>
   </g>
   <g id="matplotlib.axis_1">
    <g id="xtick_1">
     <g id="line2d_1">
      <path clip-path="url(#p0b988aa80f)" d="M 63.49839 405.026562 
L 63.49839 78 
" style="fill:none;stroke:#ffffff;stroke-linecap:round;"/>
     </g>
    </g>
    <g id="xtick_2">
     <g id="line2d_2">
      <path clip-path="url(#p0b988aa80f)" d="M 105.286474 405.026562 
L 105.286474 78 
" style="fill:none;stroke:#ffffff;stroke-linecap:round;"/>
     </g>
    </g>
    <g id="xtick_3">
     <g id="line2d_3">
      <path clip-path="url(#p0b988aa80f)" d="M 147.074559 405.026562 
L 147.074559 78 
" style="fill:none;stroke:#ffffff;stroke-linecap:round;"/>
     </g>
    </g>
    <g id="xtick_4">
     <g id="line2d_4">
      <path clip-path="url(#p0b988aa80f)" d="M 188.862644 405.026562 
L 188.862644 78 
" style="fill:none;stroke:#ffffff;stroke-linecap:round;"/>
     </g>
    </g>
    <g id="xtick_5">
     <g id="line2d_5">
      <path clip-path="url(#p0b988aa80f)" d="M 230.650728 405.026562 
L 230.650728 78 
" style="fill:none;stroke:#ffffff;stroke-linecap:round;"/>
     </g>
    </g>
    <g id="xtick_6">
     <g id="line2d_6">
      <path clip-path="url(#p0b988aa80f)" d="M 272.438813 405.026562 
L 272.438813 78 
" style="fill:none;stroke:#ffffff;stroke-linecap:round;"/>
     </g>
    </g>
    <g id="xtick_7">
     <g id="line2d_7">
      <path clip-path="url(#p0b988aa80f)" d="M 314.226898 405.026562 
L 314.226898 78 
" style="fill:none;stroke:#ffffff;stroke-linecap:round;"/>
     </g>
    </g>
    <g id="xtick_8">
     <g id="line2d_8">
      <path clip-path="url(#p0b988aa80f)" d="M 356.014982 405.026562 
L 356.014982 78 
" style="fill:none;stroke:#ffffff;stroke-linecap:round;"/>
     </g>
    </g>
   </g>
   <g id="patch_3">
    <path d="M 46.964375 405.026562 
L 371.303437 405.026562 
" style="fill:none;stroke:#ffffff;stroke-linecap:square;stroke-linejoin:miter;stroke-width:1.25;"/>
   </g>
  </g>
  <g id="axes_2">
   <g id="patch_4">
    <path d="M 46.964375 738.053125 
L 371.303437 738.053125 
L 371.303437 411.026562 
L 46.964375 411.026562 
z
" style="fill:#eaeaf2;"/>
   </g>
   <g id="matplotlib.axis_2">
    <g id="xtick_9">
     <g id="line2d_9">
      <path clip-path="url(#pfc870bf8b5)" d="M 63.49839 738.053125 
L 63.49839 411.026562 
" style="fill:none;stroke:#ffffff;stroke-linecap:round;"/>
     </g>
     <g id="text_1">
      <!-- 2.5 -->
      <g style="fill:#262626;" transform="translate(55.85339 755.426719)scale(0.11 -0.11)">
       <defs>
        <path d="M 50.34375 8.453125 
L 50.34375 0 
L 3.03125 0 
Q 2.9375 3.171875 4.046875 6.109375 
Q 5.859375 10.9375 9.828125 15.625 
Q 13.8125 20.3125 21.34375 26.46875 
Q 33.015625 36.03125 37.109375 41.625 
Q 41.21875 47.21875 41.21875 52.203125 
Q 41.21875 57.421875 37.46875 61 
Q 33.734375 64.59375 27.734375 64.59375 
Q 21.390625 64.59375 17.578125 60.78125 
Q 13.765625 56.984375 13.71875 50.25 
L 4.6875 51.171875 
Q 5.609375 61.28125 11.65625 66.578125 
Q 17.71875 71.875 27.9375 71.875 
Q 38.234375 71.875 44.234375 66.15625 
Q 50.25 60.453125 50.25 52 
Q 50.25 47.703125 48.484375 43.546875 
Q 46.734375 39.40625 42.65625 34.8125 
Q 38.578125 30.21875 29.109375 22.21875 
Q 21.1875 15.578125 18.9375 13.203125 
Q 16.703125 10.84375 15.234375 8.453125 
z
" id="ArialMT-50"/>
        <path d="M 9.078125 0 
L 9.078125 10.015625 
L 19.09375 10.015625 
L 19.09375 0 
z
" id="ArialMT-46"/>
        <path d="M 4.15625 18.75 
L 13.375 19.53125 
Q 14.40625 12.796875 18.140625 9.390625 
Q 21.875 6 27.15625 6 
Q 33.5 6 37.890625 10.78125 
Q 42.28125 15.578125 42.28125 23.484375 
Q 42.28125 31 38.0625 35.34375 
Q 33.84375 39.703125 27 39.703125 
Q 22.75 39.703125 19.328125 37.765625 
Q 15.921875 35.84375 13.96875 32.765625 
L 5.71875 33.84375 
L 12.640625 70.609375 
L 48.25 70.609375 
L 48.25 62.203125 
L 19.671875 62.203125 
L 15.828125 42.96875 
Q 22.265625 47.46875 29.34375 47.46875 
Q 38.71875 47.46875 45.15625 40.96875 
Q 51.609375 34.46875 51.609375 24.265625 
Q 51.609375 14.546875 45.953125 7.46875 
Q 39.0625 -1.21875 27.15625 -1.21875 
Q 17.390625 -1.21875 11.203125 4.25 
Q 5.03125 9.71875 4.15625 18.75 
z
" id="ArialMT-53"/>
       </defs>
       <use xlink:href="#ArialMT-50"/>
       <use x="55.615234" xlink:href="#ArialMT-46"/>
       <use x="83.398438" xlink:href="#ArialMT-53"/>
      </g>
     </g>
    </g>
    <g id="xtick_10">
     <g id="line2d_10">
      <path clip-path="url(#pfc870bf8b5)" d="M 105.286474 738.053125 
L 105.286474 411.026562 
" style="fill:none;stroke:#ffffff;stroke-linecap:round;"/>
     </g>
     <g id="text_2">
      <!-- 3.0 -->
      <g style="fill:#262626;" transform="translate(97.641474 755.426719)scale(0.11 -0.11)">
       <defs>
        <path d="M 4.203125 18.890625 
L 12.984375 20.0625 
Q 14.5 12.59375 18.140625 9.296875 
Q 21.78125 6 27 6 
Q 33.203125 6 37.46875 10.296875 
Q 41.75 14.59375 41.75 20.953125 
Q 41.75 27 37.796875 30.921875 
Q 33.84375 34.859375 27.734375 34.859375 
Q 25.25 34.859375 21.53125 33.890625 
L 22.515625 41.609375 
Q 23.390625 41.5 23.921875 41.5 
Q 29.546875 41.5 34.03125 44.421875 
Q 38.53125 47.359375 38.53125 53.46875 
Q 38.53125 58.296875 35.25 61.46875 
Q 31.984375 64.65625 26.8125 64.65625 
Q 21.6875 64.65625 18.265625 61.421875 
Q 14.84375 58.203125 13.875 51.765625 
L 5.078125 53.328125 
Q 6.6875 62.15625 12.390625 67.015625 
Q 18.109375 71.875 26.609375 71.875 
Q 32.46875 71.875 37.390625 69.359375 
Q 42.328125 66.84375 44.9375 62.5 
Q 47.5625 58.15625 47.5625 53.265625 
Q 47.5625 48.640625 45.0625 44.828125 
Q 42.578125 41.015625 37.703125 38.765625 
Q 44.046875 37.3125 47.5625 32.6875 
Q 51.078125 28.078125 51.078125 21.140625 
Q 51.078125 11.765625 44.234375 5.25 
Q 37.40625 -1.265625 26.953125 -1.265625 
Q 17.53125 -1.265625 11.296875 4.34375 
Q 5.078125 9.96875 4.203125 18.890625 
z
" id="ArialMT-51"/>
        <path d="M 4.15625 35.296875 
Q 4.15625 48 6.765625 55.734375 
Q 9.375 63.484375 14.515625 67.671875 
Q 19.671875 71.875 27.484375 71.875 
Q 33.25 71.875 37.59375 69.546875 
Q 41.9375 67.234375 44.765625 62.859375 
Q 47.609375 58.5 49.21875 52.21875 
Q 50.828125 45.953125 50.828125 35.296875 
Q 50.828125 22.703125 48.234375 14.96875 
Q 45.65625 7.234375 40.5 3 
Q 35.359375 -1.21875 27.484375 -1.21875 
Q 17.140625 -1.21875 11.234375 6.203125 
Q 4.15625 15.140625 4.15625 35.296875 
z
M 13.1875 35.296875 
Q 13.1875 17.671875 17.3125 11.828125 
Q 21.4375 6 27.484375 6 
Q 33.546875 6 37.671875 11.859375 
Q 41.796875 17.71875 41.796875 35.296875 
Q 41.796875 52.984375 37.671875 58.78125 
Q 33.546875 64.59375 27.390625 64.59375 
Q 21.34375 64.59375 17.71875 59.46875 
Q 13.1875 52.9375 13.1875 35.296875 
z
" id="ArialMT-48"/>
       </defs>
       <use xlink:href="#ArialMT-51"/>
       <use x="55.615234" xlink:href="#ArialMT-46"/>
       <use x="83.398438" xlink:href="#ArialMT-48"/>
      </g>
     </g>
    </g>
    <g id="xtick_11">
     <g id="line2d_11">
      <path clip-path="url(#pfc870bf8b5)" d="M 147.074559 738.053125 
L 147.074559 411.026562 
" style="fill:none;stroke:#ffffff;stroke-linecap:round;"/>
     </g>
     <g id="text_3">
      <!-- 3.5 -->
      <g style="fill:#262626;" transform="translate(139.429559 755.426719)scale(0.11 -0.11)">
       <use xlink:href="#ArialMT-51"/>
       <use x="55.615234" xlink:href="#ArialMT-46"/>
       <use x="83.398438" xlink:href="#ArialMT-53"/>
      </g>
     </g>
    </g>
    <g id="xtick_12">
     <g id="line2d_12">
      <path clip-path="url(#pfc870bf8b5)" d="M 188.862644 738.053125 
L 188.862644 411.026562 
" style="fill:none;stroke:#ffffff;stroke-linecap:round;"/>
     </g>
     <g id="text_4">
      <!-- 4.0 -->
      <g style="fill:#262626;" transform="translate(181.217644 755.426719)scale(0.11 -0.11)">
       <defs>
        <path d="M 32.328125 0 
L 32.328125 17.140625 
L 1.265625 17.140625 
L 1.265625 25.203125 
L 33.9375 71.578125 
L 41.109375 71.578125 
L 41.109375 25.203125 
L 50.78125 25.203125 
L 50.78125 17.140625 
L 41.109375 17.140625 
L 41.109375 0 
z
M 32.328125 25.203125 
L 32.328125 57.46875 
L 9.90625 25.203125 
z
" id="ArialMT-52"/>
       </defs>
       <use xlink:href="#ArialMT-52"/>
       <use x="55.615234" xlink:href="#ArialMT-46"/>
       <use x="83.398438" xlink:href="#ArialMT-48"/>
      </g>
     </g>
    </g>
    <g id="xtick_13">
     <g id="line2d_13">
      <path clip-path="url(#pfc870bf8b5)" d="M 230.650728 738.053125 
L 230.650728 411.026562 
" style="fill:none;stroke:#ffffff;stroke-linecap:round;"/>
     </g>
     <g id="text_5">
      <!-- 4.5 -->
      <g style="fill:#262626;" transform="translate(223.005728 755.426719)scale(0.11 -0.11)">
       <use xlink:href="#ArialMT-52"/>
       <use x="55.615234" xlink:href="#ArialMT-46"/>
       <use x="83.398438" xlink:href="#ArialMT-53"/>
      </g>
     </g>
    </g>
    <g id="xtick_14">
     <g id="line2d_14">
      <path clip-path="url(#pfc870bf8b5)" d="M 272.438813 738.053125 
L 272.438813 411.026562 
" style="fill:none;stroke:#ffffff;stroke-linecap:round;"/>
     </g>
     <g id="text_6">
      <!-- 5.0 -->
      <g style="fill:#262626;" transform="translate(264.793813 755.426719)scale(0.11 -0.11)">
       <use xlink:href="#ArialMT-53"/>
       <use x="55.615234" xlink:href="#ArialMT-46"/>
       <use x="83.398438" xlink:href="#ArialMT-48"/>
      </g>
     </g>
    </g>
    <g id="xtick_15">
     <g id="line2d_15">
      <path clip-path="url(#pfc870bf8b5)" d="M 314.226898 738.053125 
L 314.226898 411.026562 
" style="fill:none;stroke:#ffffff;stroke-linecap:round;"/>
     </g>
     <g id="text_7">
      <!-- 5.5 -->
      <g style="fill:#262626;" transform="translate(306.581898 755.426719)scale(0.11 -0.11)">
       <use xlink:href="#ArialMT-53"/>
       <use x="55.615234" xlink:href="#ArialMT-46"/>
       <use x="83.398438" xlink:href="#ArialMT-53"/>
      </g>
     </g>
    </g>
    <g id="xtick_16">
     <g id="line2d_16">
      <path clip-path="url(#pfc870bf8b5)" d="M 356.014982 738.053125 
L 356.014982 411.026562 
" style="fill:none;stroke:#ffffff;stroke-linecap:round;"/>
     </g>
     <g id="text_8">
      <!-- 6.0 -->
      <g style="fill:#262626;" transform="translate(348.369982 755.426719)scale(0.11 -0.11)">
       <defs>
        <path d="M 49.75 54.046875 
L 41.015625 53.375 
Q 39.84375 58.546875 37.703125 60.890625 
Q 34.125 64.65625 28.90625 64.65625 
Q 24.703125 64.65625 21.53125 62.3125 
Q 17.390625 59.28125 14.984375 53.46875 
Q 12.59375 47.65625 12.5 36.921875 
Q 15.671875 41.75 20.265625 44.09375 
Q 24.859375 46.4375 29.890625 46.4375 
Q 38.671875 46.4375 44.84375 39.96875 
Q 51.03125 33.5 51.03125 23.25 
Q 51.03125 16.5 48.125 10.71875 
Q 45.21875 4.9375 40.140625 1.859375 
Q 35.0625 -1.21875 28.609375 -1.21875 
Q 17.625 -1.21875 10.6875 6.859375 
Q 3.765625 14.9375 3.765625 33.5 
Q 3.765625 54.25 11.421875 63.671875 
Q 18.109375 71.875 29.4375 71.875 
Q 37.890625 71.875 43.28125 67.140625 
Q 48.6875 62.40625 49.75 54.046875 
z
M 13.875 23.1875 
Q 13.875 18.65625 15.796875 14.5 
Q 17.71875 10.359375 21.1875 8.171875 
Q 24.65625 6 28.46875 6 
Q 34.03125 6 38.03125 10.484375 
Q 42.046875 14.984375 42.046875 22.703125 
Q 42.046875 30.125 38.078125 34.390625 
Q 34.125 38.671875 28.125 38.671875 
Q 22.171875 38.671875 18.015625 34.390625 
Q 13.875 30.125 13.875 23.1875 
z
" id="ArialMT-54"/>
       </defs>
       <use xlink:href="#ArialMT-54"/>
       <use x="55.615234" xlink:href="#ArialMT-46"/>
       <use x="83.398438" xlink:href="#ArialMT-48"/>
      </g>
     </g>
    </g>
    <g id="text_9">
     <!-- followerCount -->
     <g style="fill:#262626;" transform="translate(172.450469 770.202344)scale(0.12 -0.12)">
      <defs>
       <path d="M 8.6875 0 
L 8.6875 45.015625 
L 0.921875 45.015625 
L 0.921875 51.859375 
L 8.6875 51.859375 
L 8.6875 57.375 
Q 8.6875 62.59375 9.625 65.140625 
Q 10.890625 68.5625 14.078125 70.671875 
Q 17.28125 72.796875 23.046875 72.796875 
Q 26.765625 72.796875 31.25 71.921875 
L 29.9375 64.265625 
Q 27.203125 64.75 24.75 64.75 
Q 20.75 64.75 19.09375 63.03125 
Q 17.4375 61.328125 17.4375 56.640625 
L 17.4375 51.859375 
L 27.546875 51.859375 
L 27.546875 45.015625 
L 17.4375 45.015625 
L 17.4375 0 
z
" id="ArialMT-102"/>
       <path d="M 3.328125 25.921875 
Q 3.328125 40.328125 11.328125 47.265625 
Q 18.015625 53.03125 27.640625 53.03125 
Q 38.328125 53.03125 45.109375 46.015625 
Q 51.90625 39.015625 51.90625 26.65625 
Q 51.90625 16.65625 48.90625 10.90625 
Q 45.90625 5.171875 40.15625 2 
Q 34.421875 -1.171875 27.640625 -1.171875 
Q 16.75 -1.171875 10.03125 5.8125 
Q 3.328125 12.796875 3.328125 25.921875 
z
M 12.359375 25.921875 
Q 12.359375 15.96875 16.703125 11.015625 
Q 21.046875 6.0625 27.640625 6.0625 
Q 34.1875 6.0625 38.53125 11.03125 
Q 42.875 16.015625 42.875 26.21875 
Q 42.875 35.84375 38.5 40.796875 
Q 34.125 45.75 27.640625 45.75 
Q 21.046875 45.75 16.703125 40.8125 
Q 12.359375 35.890625 12.359375 25.921875 
z
" id="ArialMT-111"/>
       <path d="M 6.390625 0 
L 6.390625 71.578125 
L 15.1875 71.578125 
L 15.1875 0 
z
" id="ArialMT-108"/>
       <path d="M 16.15625 0 
L 0.296875 51.859375 
L 9.375 51.859375 
L 17.625 21.921875 
L 20.703125 10.796875 
Q 20.90625 11.625 23.390625 21.484375 
L 31.640625 51.859375 
L 40.671875 51.859375 
L 48.4375 21.78125 
L 51.03125 11.859375 
L 54 21.875 
L 62.890625 51.859375 
L 71.4375 51.859375 
L 55.21875 0 
L 46.09375 0 
L 37.84375 31.0625 
L 35.84375 39.890625 
L 25.34375 0 
z
" id="ArialMT-119"/>
       <path d="M 42.09375 16.703125 
L 51.171875 15.578125 
Q 49.03125 7.625 43.21875 3.21875 
Q 37.40625 -1.171875 28.375 -1.171875 
Q 17 -1.171875 10.328125 5.828125 
Q 3.65625 12.84375 3.65625 25.484375 
Q 3.65625 38.578125 10.390625 45.796875 
Q 17.140625 53.03125 27.875 53.03125 
Q 38.28125 53.03125 44.875 45.953125 
Q 51.46875 38.875 51.46875 26.03125 
Q 51.46875 25.25 51.421875 23.6875 
L 12.75 23.6875 
Q 13.234375 15.140625 17.578125 10.59375 
Q 21.921875 6.0625 28.421875 6.0625 
Q 33.25 6.0625 36.671875 8.59375 
Q 40.09375 11.140625 42.09375 16.703125 
z
M 13.234375 30.90625 
L 42.1875 30.90625 
Q 41.609375 37.453125 38.875 40.71875 
Q 34.671875 45.796875 27.984375 45.796875 
Q 21.921875 45.796875 17.796875 41.75 
Q 13.671875 37.703125 13.234375 30.90625 
z
" id="ArialMT-101"/>
       <path d="M 6.5 0 
L 6.5 51.859375 
L 14.40625 51.859375 
L 14.40625 44 
Q 17.4375 49.515625 20 51.265625 
Q 22.5625 53.03125 25.640625 53.03125 
Q 30.078125 53.03125 34.671875 50.203125 
L 31.640625 42.046875 
Q 28.421875 43.953125 25.203125 43.953125 
Q 22.3125 43.953125 20.015625 42.21875 
Q 17.71875 40.484375 16.75 37.40625 
Q 15.28125 32.71875 15.28125 27.15625 
L 15.28125 0 
z
" id="ArialMT-114"/>
       <path d="M 58.796875 25.09375 
L 68.265625 22.703125 
Q 65.28125 11.03125 57.546875 4.90625 
Q 49.8125 -1.21875 38.625 -1.21875 
Q 27.046875 -1.21875 19.796875 3.484375 
Q 12.546875 8.203125 8.765625 17.140625 
Q 4.984375 26.078125 4.984375 36.328125 
Q 4.984375 47.515625 9.25 55.828125 
Q 13.53125 64.15625 21.40625 68.46875 
Q 29.296875 72.796875 38.765625 72.796875 
Q 49.515625 72.796875 56.828125 67.328125 
Q 64.15625 61.859375 67.046875 51.953125 
L 57.71875 49.75 
Q 55.21875 57.5625 50.484375 61.125 
Q 45.75 64.703125 38.578125 64.703125 
Q 30.328125 64.703125 24.78125 60.734375 
Q 19.234375 56.78125 16.984375 50.109375 
Q 14.75 43.453125 14.75 36.375 
Q 14.75 27.25 17.40625 20.4375 
Q 20.0625 13.625 25.671875 10.25 
Q 31.296875 6.890625 37.84375 6.890625 
Q 45.796875 6.890625 51.3125 11.46875 
Q 56.84375 16.0625 58.796875 25.09375 
z
" id="ArialMT-67"/>
       <path d="M 40.578125 0 
L 40.578125 7.625 
Q 34.515625 -1.171875 24.125 -1.171875 
Q 19.53125 -1.171875 15.546875 0.578125 
Q 11.578125 2.34375 9.640625 5 
Q 7.71875 7.671875 6.9375 11.53125 
Q 6.390625 14.109375 6.390625 19.734375 
L 6.390625 51.859375 
L 15.1875 51.859375 
L 15.1875 23.09375 
Q 15.1875 16.21875 15.71875 13.8125 
Q 16.546875 10.359375 19.234375 8.375 
Q 21.921875 6.390625 25.875 6.390625 
Q 29.828125 6.390625 33.296875 8.421875 
Q 36.765625 10.453125 38.203125 13.9375 
Q 39.65625 17.4375 39.65625 24.078125 
L 39.65625 51.859375 
L 48.4375 51.859375 
L 48.4375 0 
z
" id="ArialMT-117"/>
       <path d="M 6.59375 0 
L 6.59375 51.859375 
L 14.5 51.859375 
L 14.5 44.484375 
Q 20.21875 53.03125 31 53.03125 
Q 35.6875 53.03125 39.625 51.34375 
Q 43.5625 49.65625 45.515625 46.921875 
Q 47.46875 44.1875 48.25 40.4375 
Q 48.734375 37.984375 48.734375 31.890625 
L 48.734375 0 
L 39.9375 0 
L 39.9375 31.546875 
Q 39.9375 36.921875 38.90625 39.578125 
Q 37.890625 42.234375 35.28125 43.8125 
Q 32.671875 45.40625 29.15625 45.40625 
Q 23.53125 45.40625 19.453125 41.84375 
Q 15.375 38.28125 15.375 28.328125 
L 15.375 0 
z
" id="ArialMT-110"/>
       <path d="M 25.78125 7.859375 
L 27.046875 0.09375 
Q 23.34375 -0.6875 20.40625 -0.6875 
Q 15.625 -0.6875 12.984375 0.828125 
Q 10.359375 2.34375 9.28125 4.8125 
Q 8.203125 7.28125 8.203125 15.1875 
L 8.203125 45.015625 
L 1.765625 45.015625 
L 1.765625 51.859375 
L 8.203125 51.859375 
L 8.203125 64.703125 
L 16.9375 69.96875 
L 16.9375 51.859375 
L 25.78125 51.859375 
L 25.78125 45.015625 
L 16.9375 45.015625 
L 16.9375 14.703125 
Q 16.9375 10.9375 17.40625 9.859375 
Q 17.875 8.796875 18.921875 8.15625 
Q 19.96875 7.515625 21.921875 7.515625 
Q 23.390625 7.515625 25.78125 7.859375 
z
" id="ArialMT-116"/>
      </defs>
      <use xlink:href="#ArialMT-102"/>
      <use x="27.783203" xlink:href="#ArialMT-111"/>
      <use x="83.398438" xlink:href="#ArialMT-108"/>
      <use x="105.615234" xlink:href="#ArialMT-108"/>
      <use x="127.832031" xlink:href="#ArialMT-111"/>
      <use x="183.447266" xlink:href="#ArialMT-119"/>
      <use x="255.664062" xlink:href="#ArialMT-101"/>
      <use x="311.279297" xlink:href="#ArialMT-114"/>
      <use x="344.580078" xlink:href="#ArialMT-67"/>
      <use x="416.796875" xlink:href="#ArialMT-111"/>
      <use x="472.412109" xlink:href="#ArialMT-117"/>
      <use x="528.027344" xlink:href="#ArialMT-110"/>
      <use x="583.642578" xlink:href="#ArialMT-116"/>
     </g>
    </g>
   </g>
   <g id="matplotlib.axis_3">
    <g id="ytick_1">
     <g id="line2d_17">
      <path clip-path="url(#pfc870bf8b5)" d="M 46.964375 723.188281 
L 371.303437 723.188281 
" style="fill:none;stroke:#ffffff;stroke-linecap:round;"/>
     </g>
     <g id="text_10">
      <!-- 0.0 -->
      <g style="fill:#262626;" transform="translate(22.174375 727.125078)scale(0.11 -0.11)">
       <use xlink:href="#ArialMT-48"/>
       <use x="55.615234" xlink:href="#ArialMT-46"/>
       <use x="83.398438" xlink:href="#ArialMT-48"/>
      </g>
     </g>
    </g>
    <g id="ytick_2">
     <g id="line2d_18">
      <path clip-path="url(#pfc870bf8b5)" d="M 46.964375 685.271478 
L 371.303437 685.271478 
" style="fill:none;stroke:#ffffff;stroke-linecap:round;"/>
     </g>
     <g id="text_11">
      <!-- 0.5 -->
      <g style="fill:#262626;" transform="translate(22.174375 689.208275)scale(0.11 -0.11)">
       <use xlink:href="#ArialMT-48"/>
       <use x="55.615234" xlink:href="#ArialMT-46"/>
       <use x="83.398438" xlink:href="#ArialMT-53"/>
      </g>
     </g>
    </g>
    <g id="ytick_3">
     <g id="line2d_19">
      <path clip-path="url(#pfc870bf8b5)" d="M 46.964375 647.354675 
L 371.303437 647.354675 
" style="fill:none;stroke:#ffffff;stroke-linecap:round;"/>
     </g>
     <g id="text_12">
      <!-- 1.0 -->
      <g style="fill:#262626;" transform="translate(22.174375 651.291472)scale(0.11 -0.11)">
       <defs>
        <path d="M 37.25 0 
L 28.46875 0 
L 28.46875 56 
Q 25.296875 52.984375 20.140625 49.953125 
Q 14.984375 46.921875 10.890625 45.40625 
L 10.890625 53.90625 
Q 18.265625 57.375 23.78125 62.296875 
Q 29.296875 67.234375 31.59375 71.875 
L 37.25 71.875 
z
" id="ArialMT-49"/>
       </defs>
       <use xlink:href="#ArialMT-49"/>
       <use x="55.615234" xlink:href="#ArialMT-46"/>
       <use x="83.398438" xlink:href="#ArialMT-48"/>
      </g>
     </g>
    </g>
    <g id="ytick_4">
     <g id="line2d_20">
      <path clip-path="url(#pfc870bf8b5)" d="M 46.964375 609.437872 
L 371.303437 609.437872 
" style="fill:none;stroke:#ffffff;stroke-linecap:round;"/>
     </g>
     <g id="text_13">
      <!-- 1.5 -->
      <g style="fill:#262626;" transform="translate(22.174375 613.374669)scale(0.11 -0.11)">
       <use xlink:href="#ArialMT-49"/>
       <use x="55.615234" xlink:href="#ArialMT-46"/>
       <use x="83.398438" xlink:href="#ArialMT-53"/>
      </g>
     </g>
    </g>
    <g id="ytick_5">
     <g id="line2d_21">
      <path clip-path="url(#pfc870bf8b5)" d="M 46.964375 571.521069 
L 371.303437 571.521069 
" style="fill:none;stroke:#ffffff;stroke-linecap:round;"/>
     </g>
     <g id="text_14">
      <!-- 2.0 -->
      <g style="fill:#262626;" transform="translate(22.174375 575.457866)scale(0.11 -0.11)">
       <use xlink:href="#ArialMT-50"/>
       <use x="55.615234" xlink:href="#ArialMT-46"/>
       <use x="83.398438" xlink:href="#ArialMT-48"/>
      </g>
     </g>
    </g>
    <g id="ytick_6">
     <g id="line2d_22">
      <path clip-path="url(#pfc870bf8b5)" d="M 46.964375 533.604266 
L 371.303437 533.604266 
" style="fill:none;stroke:#ffffff;stroke-linecap:round;"/>
     </g>
     <g id="text_15">
      <!-- 2.5 -->
      <g style="fill:#262626;" transform="translate(22.174375 537.541062)scale(0.11 -0.11)">
       <use xlink:href="#ArialMT-50"/>
       <use x="55.615234" xlink:href="#ArialMT-46"/>
       <use x="83.398438" xlink:href="#ArialMT-53"/>
      </g>
     </g>
    </g>
    <g id="ytick_7">
     <g id="line2d_23">
      <path clip-path="url(#pfc870bf8b5)" d="M 46.964375 495.687462 
L 371.303437 495.687462 
" style="fill:none;stroke:#ffffff;stroke-linecap:round;"/>
     </g>
     <g id="text_16">
      <!-- 3.0 -->
      <g style="fill:#262626;" transform="translate(22.174375 499.624259)scale(0.11 -0.11)">
       <use xlink:href="#ArialMT-51"/>
       <use x="55.615234" xlink:href="#ArialMT-46"/>
       <use x="83.398438" xlink:href="#ArialMT-48"/>
      </g>
     </g>
    </g>
    <g id="ytick_8">
     <g id="line2d_24">
      <path clip-path="url(#pfc870bf8b5)" d="M 46.964375 457.770659 
L 371.303437 457.770659 
" style="fill:none;stroke:#ffffff;stroke-linecap:round;"/>
     </g>
     <g id="text_17">
      <!-- 3.5 -->
      <g style="fill:#262626;" transform="translate(22.174375 461.707456)scale(0.11 -0.11)">
       <use xlink:href="#ArialMT-51"/>
       <use x="55.615234" xlink:href="#ArialMT-46"/>
       <use x="83.398438" xlink:href="#ArialMT-53"/>
      </g>
     </g>
    </g>
    <g id="ytick_9">
     <g id="line2d_25">
      <path clip-path="url(#pfc870bf8b5)" d="M 46.964375 419.853856 
L 371.303437 419.853856 
" style="fill:none;stroke:#ffffff;stroke-linecap:round;"/>
     </g>
     <g id="text_18">
      <!-- 4.0 -->
      <g style="fill:#262626;" transform="translate(22.174375 423.790653)scale(0.11 -0.11)">
       <use xlink:href="#ArialMT-52"/>
       <use x="55.615234" xlink:href="#ArialMT-46"/>
       <use x="83.398438" xlink:href="#ArialMT-48"/>
      </g>
     </g>
    </g>
    <g id="text_19">
     <!-- uniqueVoters -->
     <g style="fill:#262626;" transform="translate(15.789375 609.565781)rotate(-90)scale(0.12 -0.12)">
      <defs>
       <path d="M 6.640625 61.46875 
L 6.640625 71.578125 
L 15.4375 71.578125 
L 15.4375 61.46875 
z
M 6.640625 0 
L 6.640625 51.859375 
L 15.4375 51.859375 
L 15.4375 0 
z
" id="ArialMT-105"/>
       <path d="M 39.65625 -19.875 
L 39.65625 5.515625 
Q 37.59375 2.640625 33.90625 0.734375 
Q 30.21875 -1.171875 26.078125 -1.171875 
Q 16.84375 -1.171875 10.171875 6.203125 
Q 3.515625 13.578125 3.515625 26.421875 
Q 3.515625 34.234375 6.21875 40.421875 
Q 8.9375 46.625 14.078125 49.828125 
Q 19.234375 53.03125 25.390625 53.03125 
Q 35.015625 53.03125 40.53125 44.921875 
L 40.53125 51.859375 
L 48.4375 51.859375 
L 48.4375 -19.875 
z
M 12.546875 26.078125 
Q 12.546875 16.0625 16.75 11.0625 
Q 20.953125 6.0625 26.8125 6.0625 
Q 32.421875 6.0625 36.46875 10.8125 
Q 40.53125 15.578125 40.53125 25.296875 
Q 40.53125 35.640625 36.25 40.859375 
Q 31.984375 46.09375 26.21875 46.09375 
Q 20.515625 46.09375 16.53125 41.234375 
Q 12.546875 36.375 12.546875 26.078125 
z
" id="ArialMT-113"/>
       <path d="M 28.171875 0 
L 0.4375 71.578125 
L 10.6875 71.578125 
L 29.296875 19.578125 
Q 31.546875 13.328125 33.0625 7.859375 
Q 34.71875 13.71875 36.921875 19.578125 
L 56.25 71.578125 
L 65.921875 71.578125 
L 37.890625 0 
z
" id="ArialMT-86"/>
       <path d="M 3.078125 15.484375 
L 11.765625 16.84375 
Q 12.5 11.625 15.84375 8.84375 
Q 19.1875 6.0625 25.203125 6.0625 
Q 31.25 6.0625 34.171875 8.515625 
Q 37.109375 10.984375 37.109375 14.3125 
Q 37.109375 17.28125 34.515625 19 
Q 32.71875 20.171875 25.53125 21.96875 
Q 15.875 24.421875 12.140625 26.203125 
Q 8.40625 27.984375 6.46875 31.125 
Q 4.546875 34.28125 4.546875 38.09375 
Q 4.546875 41.546875 6.125 44.5 
Q 7.71875 47.46875 10.453125 49.421875 
Q 12.5 50.921875 16.03125 51.96875 
Q 19.578125 53.03125 23.640625 53.03125 
Q 29.734375 53.03125 34.34375 51.265625 
Q 38.96875 49.515625 41.15625 46.5 
Q 43.359375 43.5 44.1875 38.484375 
L 35.59375 37.3125 
Q 35.015625 41.3125 32.203125 43.546875 
Q 29.390625 45.796875 24.265625 45.796875 
Q 18.21875 45.796875 15.625 43.796875 
Q 13.03125 41.796875 13.03125 39.109375 
Q 13.03125 37.40625 14.109375 36.03125 
Q 15.1875 34.625 17.484375 33.6875 
Q 18.796875 33.203125 25.25 31.453125 
Q 34.578125 28.953125 38.25 27.359375 
Q 41.9375 25.78125 44.03125 22.75 
Q 46.140625 19.734375 46.140625 15.234375 
Q 46.140625 10.84375 43.578125 6.953125 
Q 41.015625 3.078125 36.171875 0.953125 
Q 31.34375 -1.171875 25.25 -1.171875 
Q 15.140625 -1.171875 9.84375 3.03125 
Q 4.546875 7.234375 3.078125 15.484375 
z
" id="ArialMT-115"/>
      </defs>
      <use xlink:href="#ArialMT-117"/>
      <use x="55.615234" xlink:href="#ArialMT-110"/>
      <use x="111.230469" xlink:href="#ArialMT-105"/>
      <use x="133.447266" xlink:href="#ArialMT-113"/>
      <use x="189.0625" xlink:href="#ArialMT-117"/>
      <use x="244.677734" xlink:href="#ArialMT-101"/>
      <use x="300.292969" xlink:href="#ArialMT-86"/>
      <use x="361.492188" xlink:href="#ArialMT-111"/>
      <use x="417.107422" xlink:href="#ArialMT-116"/>
      <use x="444.890625" xlink:href="#ArialMT-101"/>
      <use x="500.505859" xlink:href="#ArialMT-114"/>
      <use x="533.806641" xlink:href="#ArialMT-115"/>
     </g>
    </g>
   </g>
   <g id="PathCollection_1">
    <defs>
     <path d="M 0 3 
C 0.795609 3 1.55874 2.683901 2.12132 2.12132 
C 2.683901 1.55874 3 0.795609 3 0 
C 3 -0.795609 2.683901 -1.55874 2.12132 -2.12132 
C 1.55874 -2.683901 0.795609 -3 0 -3 
C -0.795609 -3 -1.55874 -2.683901 -2.12132 -2.12132 
C -2.683901 -1.55874 -3 -0.795609 -3 0 
C -3 0.795609 -2.683901 1.55874 -2.12132 2.12132 
C -1.55874 2.683901 -0.795609 3 0 3 
z
" id="mc729bd30e1" style="stroke:#ffffff;stroke-width:0.48;"/>
    </defs>
    <g clip-path="url(#pfc870bf8b5)">
     <use style="fill:#4c72b0;stroke:#ffffff;stroke-width:0.48;" x="356.560753" xlink:href="#mc729bd30e1" y="553.090617"/>
     <use style="fill:#4c72b0;stroke:#ffffff;stroke-width:0.48;" x="325.251793" xlink:href="#mc729bd30e1" y="499.525401"/>
     <use style="fill:#4c72b0;stroke:#ffffff;stroke-width:0.48;" x="269.492339" xlink:href="#mc729bd30e1" y="433.879572"/>
     <use style="fill:#4c72b0;stroke:#ffffff;stroke-width:0.48;" x="150.809413" xlink:href="#mc729bd30e1" y="574.267168"/>
     <use style="fill:#4c72b0;stroke:#ffffff;stroke-width:0.48;" x="180.572217" xlink:href="#mc729bd30e1" y="624.526485"/>
     <use style="fill:#4c72b0;stroke:#ffffff;stroke-width:0.48;" x="279.630246" xlink:href="#mc729bd30e1" y="434.147886"/>
     <use style="fill:#4c72b0;stroke:#ffffff;stroke-width:0.48;" x="286.040797" xlink:href="#mc729bd30e1" y="497.272923"/>
     <use style="fill:#4c72b0;stroke:#ffffff;stroke-width:0.48;" x="240.669472" xlink:href="#mc729bd30e1" y="464.716291"/>
     <use style="fill:#4c72b0;stroke:#ffffff;stroke-width:0.48;" x="195.739507" xlink:href="#mc729bd30e1" y="526.195687"/>
     <use style="fill:#4c72b0;stroke:#ffffff;stroke-width:0.48;" x="173.720272" xlink:href="#mc729bd30e1" y="561.637389"/>
     <use style="fill:#4c72b0;stroke:#ffffff;stroke-width:0.48;" x="158.956385" xlink:href="#mc729bd30e1" y="516.534536"/>
     <use style="fill:#4c72b0;stroke:#ffffff;stroke-width:0.48;" x="108.580556" xlink:href="#mc729bd30e1" y="578.870105"/>
     <use style="fill:#4c72b0;stroke:#ffffff;stroke-width:0.48;" x="226.203274" xlink:href="#mc729bd30e1" y="467.829538"/>
     <use style="fill:#4c72b0;stroke:#ffffff;stroke-width:0.48;" x="300.864968" xlink:href="#mc729bd30e1" y="494.459159"/>
     <use style="fill:#4c72b0;stroke:#ffffff;stroke-width:0.48;" x="237.38363" xlink:href="#mc729bd30e1" y="494.143393"/>
     <use style="fill:#4c72b0;stroke:#ffffff;stroke-width:0.48;" x="141.752571" xlink:href="#mc729bd30e1" y="626.215784"/>
     <use style="fill:#4c72b0;stroke:#ffffff;stroke-width:0.48;" x="198.577735" xlink:href="#mc729bd30e1" y="659.101449"/>
     <use style="fill:#4c72b0;stroke:#ffffff;stroke-width:0.48;" x="198.043354" xlink:href="#mc729bd30e1" y="614.642805"/>
     <use style="fill:#4c72b0;stroke:#ffffff;stroke-width:0.48;" x="210.526547" xlink:href="#mc729bd30e1" y="546.158235"/>
     <use style="fill:#4c72b0;stroke:#ffffff;stroke-width:0.48;" x="151.231532" xlink:href="#mc729bd30e1" y="552.530817"/>
     <use style="fill:#4c72b0;stroke:#ffffff;stroke-width:0.48;" x="147.254573" xlink:href="#mc729bd30e1" y="611.17285"/>
     <use style="fill:#4c72b0;stroke:#ffffff;stroke-width:0.48;" x="277.011484" xlink:href="#mc729bd30e1" y="502.872238"/>
     <use style="fill:#4c72b0;stroke:#ffffff;stroke-width:0.48;" x="143.718528" xlink:href="#mc729bd30e1" y="647.354675"/>
     <use style="fill:#4c72b0;stroke:#ffffff;stroke-width:0.48;" x="288.55592" xlink:href="#mc729bd30e1" y="571.521069"/>
     <use style="fill:#4c72b0;stroke:#ffffff;stroke-width:0.48;" x="152.754973" xlink:href="#mc729bd30e1" y="535.670242"/>
     <use style="fill:#4c72b0;stroke:#ffffff;stroke-width:0.48;" x="235.843003" xlink:href="#mc729bd30e1" y="509.322234"/>
     <use style="fill:#4c72b0;stroke:#ffffff;stroke-width:0.48;" x="217.565065" xlink:href="#mc729bd30e1" y="551.980373"/>
     <use style="fill:#4c72b0;stroke:#ffffff;stroke-width:0.48;" x="247.751561" xlink:href="#mc729bd30e1" y="486.568866"/>
     <use style="fill:#4c72b0;stroke:#ffffff;stroke-width:0.48;" x="154.405106" xlink:href="#mc729bd30e1" y="610.092946"/>
     <use style="fill:#4c72b0;stroke:#ffffff;stroke-width:0.48;" x="268.68911" xlink:href="#mc729bd30e1" y="534.153271"/>
     <use style="fill:#4c72b0;stroke:#ffffff;stroke-width:0.48;" x="278.652862" xlink:href="#mc729bd30e1" y="497.690257"/>
     <use style="fill:#4c72b0;stroke:#ffffff;stroke-width:0.48;" x="299.292537" xlink:href="#mc729bd30e1" y="504.639243"/>
     <use style="fill:#4c72b0;stroke:#ffffff;stroke-width:0.48;" x="197.478093" xlink:href="#mc729bd30e1" y="532.906405"/>
     <use style="fill:#4c72b0;stroke:#ffffff;stroke-width:0.48;" x="110.673626" xlink:href="#mc729bd30e1" y="463.941036"/>
     <use style="fill:#4c72b0;stroke:#ffffff;stroke-width:0.48;" x="211.408963" xlink:href="#mc729bd30e1" y="538.566142"/>
     <use style="fill:#4c72b0;stroke:#ffffff;stroke-width:0.48;" x="231.542121" xlink:href="#mc729bd30e1" y="614.642805"/>
     <use style="fill:#4c72b0;stroke:#ffffff;stroke-width:0.48;" x="214.287382" xlink:href="#mc729bd30e1" y="524.257827"/>
     <use style="fill:#4c72b0;stroke:#ffffff;stroke-width:0.48;" x="223.586383" xlink:href="#mc729bd30e1" y="554.239598"/>
     <use style="fill:#4c72b0;stroke:#ffffff;stroke-width:0.48;" x="218.238588" xlink:href="#mc729bd30e1" y="550.73069"/>
     <use style="fill:#4c72b0;stroke:#ffffff;stroke-width:0.48;" x="259.224151" xlink:href="#mc729bd30e1" y="448.534185"/>
     <use style="fill:#4c72b0;stroke:#ffffff;stroke-width:0.48;" x="192.315486" xlink:href="#mc729bd30e1" y="521.766776"/>
     <use style="fill:#4c72b0;stroke:#ffffff;stroke-width:0.48;" x="251.888373" xlink:href="#mc729bd30e1" y="508.003717"/>
     <use style="fill:#4c72b0;stroke:#ffffff;stroke-width:0.48;" x="213.428757" xlink:href="#mc729bd30e1" y="608.033893"/>
     <use style="fill:#4c72b0;stroke:#ffffff;stroke-width:0.48;" x="188.636904" xlink:href="#mc729bd30e1" y="647.354675"/>
     <use style="fill:#4c72b0;stroke:#ffffff;stroke-width:0.48;" x="223.668561" xlink:href="#mc729bd30e1" y="472.142577"/>
     <use style="fill:#4c72b0;stroke:#ffffff;stroke-width:0.48;" x="245.661808" xlink:href="#mc729bd30e1" y="578.870105"/>
     <use style="fill:#4c72b0;stroke:#ffffff;stroke-width:0.48;" x="289.3406" xlink:href="#mc729bd30e1" y="441.238693"/>
     <use style="fill:#4c72b0;stroke:#ffffff;stroke-width:0.48;" x="237.346425" xlink:href="#mc729bd30e1" y="517.414508"/>
     <use style="fill:#4c72b0;stroke:#ffffff;stroke-width:0.48;" x="205.543665" xlink:href="#mc729bd30e1" y="507.059981"/>
     <use style="fill:#4c72b0;stroke:#ffffff;stroke-width:0.48;" x="236.60201" xlink:href="#mc729bd30e1" y="529.888172"/>
     <use style="fill:#4c72b0;stroke:#ffffff;stroke-width:0.48;" x="197.845521" xlink:href="#mc729bd30e1" y="525.455564"/>
     <use style="fill:#4c72b0;stroke:#ffffff;stroke-width:0.48;" x="175.389007" xlink:href="#mc729bd30e1" y="615.88575"/>
     <use style="fill:#4c72b0;stroke:#ffffff;stroke-width:0.48;" x="225.860438" xlink:href="#mc729bd30e1" y="584.710444"/>
     <use style="fill:#4c72b0;stroke:#ffffff;stroke-width:0.48;" x="235.314914" xlink:href="#mc729bd30e1" y="520.066573"/>
     <use style="fill:#4c72b0;stroke:#ffffff;stroke-width:0.48;" x="246.149606" xlink:href="#mc729bd30e1" y="493.520801"/>
     <use style="fill:#4c72b0;stroke:#ffffff;stroke-width:0.48;" x="146.667366" xlink:href="#mc729bd30e1" y="471.22106"/>
     <use style="fill:#4c72b0;stroke:#ffffff;stroke-width:0.48;" x="61.70706" xlink:href="#mc729bd30e1" y="629.878902"/>
     <use style="fill:#4c72b0;stroke:#ffffff;stroke-width:0.48;" x="177.99724" xlink:href="#mc729bd30e1" y="561.882254"/>
     <use style="fill:#4c72b0;stroke:#ffffff;stroke-width:0.48;" x="276.844057" xlink:href="#mc729bd30e1" y="490.544844"/>
     <use style="fill:#4c72b0;stroke:#ffffff;stroke-width:0.48;" x="297.282232" xlink:href="#mc729bd30e1" y="425.891406"/>
     <use style="fill:#4c72b0;stroke:#ffffff;stroke-width:0.48;" x="295.355351" xlink:href="#mc729bd30e1" y="552.530817"/>
     <use style="fill:#4c72b0;stroke:#ffffff;stroke-width:0.48;" x="202.009646" xlink:href="#mc729bd30e1" y="600.091434"/>
     <use style="fill:#4c72b0;stroke:#ffffff;stroke-width:0.48;" x="148.511726" xlink:href="#mc729bd30e1" y="568.986425"/>
     <use style="fill:#4c72b0;stroke:#ffffff;stroke-width:0.48;" x="192.226268" xlink:href="#mc729bd30e1" y="494.970767"/>
     <use style="fill:#4c72b0;stroke:#ffffff;stroke-width:0.48;" x="236.575697" xlink:href="#mc729bd30e1" y="540.691661"/>
     <use style="fill:#4c72b0;stroke:#ffffff;stroke-width:0.48;" x="236.66917" xlink:href="#mc729bd30e1" y="560.205245"/>
     <use style="fill:#4c72b0;stroke:#ffffff;stroke-width:0.48;" x="349.808528" xlink:href="#mc729bd30e1" y="488.869634"/>
     <use style="fill:#4c72b0;stroke:#ffffff;stroke-width:0.48;" x="214.063295" xlink:href="#mc729bd30e1" y="520.553464"/>
     <use style="fill:#4c72b0;stroke:#ffffff;stroke-width:0.48;" x="158.881846" xlink:href="#mc729bd30e1" y="723.188281"/>
     <use style="fill:#4c72b0;stroke:#ffffff;stroke-width:0.48;" x="222.548174" xlink:href="#mc729bd30e1" y="451.195901"/>
     <use style="fill:#4c72b0;stroke:#ffffff;stroke-width:0.48;" x="294.346485" xlink:href="#mc729bd30e1" y="447.027132"/>
     <use style="fill:#4c72b0;stroke:#ffffff;stroke-width:0.48;" x="123.020302" xlink:href="#mc729bd30e1" y="532.804599"/>
     <use style="fill:#4c72b0;stroke:#ffffff;stroke-width:0.48;" x="173.471531" xlink:href="#mc729bd30e1" y="614.642805"/>
    </g>
   </g>
   <g id="patch_5">
    <path d="M 46.964375 738.053125 
L 46.964375 411.026562 
" style="fill:none;stroke:#ffffff;stroke-linecap:square;stroke-linejoin:miter;stroke-width:1.25;"/>
   </g>
   <g id="patch_6">
    <path d="M 46.964375 738.053125 
L 371.303437 738.053125 
" style="fill:none;stroke:#ffffff;stroke-linecap:square;stroke-linejoin:miter;stroke-width:1.25;"/>
   </g>
  </g>
  <g id="axes_3">
   <g id="patch_7">
    <path d="M 377.303438 738.053125 
L 701.6425 738.053125 
L 701.6425 411.026562 
L 377.303438 411.026562 
z
" style="fill:#eaeaf2;"/>
   </g>
   <g id="matplotlib.axis_4">
    <g id="xtick_17">
     <g id="line2d_26">
      <path clip-path="url(#p9111982107)" d="M 392.046122 738.053125 
L 392.046122 411.026562 
" style="fill:none;stroke:#ffffff;stroke-linecap:round;"/>
     </g>
     <g id="text_20">
      <!-- 0.0 -->
      <g style="fill:#262626;" transform="translate(384.401122 755.426719)scale(0.11 -0.11)">
       <use xlink:href="#ArialMT-48"/>
       <use x="55.615234" xlink:href="#ArialMT-46"/>
       <use x="83.398438" xlink:href="#ArialMT-48"/>
      </g>
     </g>
    </g>
    <g id="xtick_18">
     <g id="line2d_27">
      <path clip-path="url(#p9111982107)" d="M 429.651325 738.053125 
L 429.651325 411.026562 
" style="fill:none;stroke:#ffffff;stroke-linecap:round;"/>
     </g>
     <g id="text_21">
      <!-- 0.5 -->
      <g style="fill:#262626;" transform="translate(422.006325 755.426719)scale(0.11 -0.11)">
       <use xlink:href="#ArialMT-48"/>
       <use x="55.615234" xlink:href="#ArialMT-46"/>
       <use x="83.398438" xlink:href="#ArialMT-53"/>
      </g>
     </g>
    </g>
    <g id="xtick_19">
     <g id="line2d_28">
      <path clip-path="url(#p9111982107)" d="M 467.256529 738.053125 
L 467.256529 411.026562 
" style="fill:none;stroke:#ffffff;stroke-linecap:round;"/>
     </g>
     <g id="text_22">
      <!-- 1.0 -->
      <g style="fill:#262626;" transform="translate(459.611529 755.426719)scale(0.11 -0.11)">
       <use xlink:href="#ArialMT-49"/>
       <use x="55.615234" xlink:href="#ArialMT-46"/>
       <use x="83.398438" xlink:href="#ArialMT-48"/>
      </g>
     </g>
    </g>
    <g id="xtick_20">
     <g id="line2d_29">
      <path clip-path="url(#p9111982107)" d="M 504.861732 738.053125 
L 504.861732 411.026562 
" style="fill:none;stroke:#ffffff;stroke-linecap:round;"/>
     </g>
     <g id="text_23">
      <!-- 1.5 -->
      <g style="fill:#262626;" transform="translate(497.216732 755.426719)scale(0.11 -0.11)">
       <use xlink:href="#ArialMT-49"/>
       <use x="55.615234" xlink:href="#ArialMT-46"/>
       <use x="83.398438" xlink:href="#ArialMT-53"/>
      </g>
     </g>
    </g>
    <g id="xtick_21">
     <g id="line2d_30">
      <path clip-path="url(#p9111982107)" d="M 542.466936 738.053125 
L 542.466936 411.026562 
" style="fill:none;stroke:#ffffff;stroke-linecap:round;"/>
     </g>
     <g id="text_24">
      <!-- 2.0 -->
      <g style="fill:#262626;" transform="translate(534.821936 755.426719)scale(0.11 -0.11)">
       <use xlink:href="#ArialMT-50"/>
       <use x="55.615234" xlink:href="#ArialMT-46"/>
       <use x="83.398438" xlink:href="#ArialMT-48"/>
      </g>
     </g>
    </g>
    <g id="xtick_22">
     <g id="line2d_31">
      <path clip-path="url(#p9111982107)" d="M 580.072139 738.053125 
L 580.072139 411.026562 
" style="fill:none;stroke:#ffffff;stroke-linecap:round;"/>
     </g>
     <g id="text_25">
      <!-- 2.5 -->
      <g style="fill:#262626;" transform="translate(572.427139 755.426719)scale(0.11 -0.11)">
       <use xlink:href="#ArialMT-50"/>
       <use x="55.615234" xlink:href="#ArialMT-46"/>
       <use x="83.398438" xlink:href="#ArialMT-53"/>
      </g>
     </g>
    </g>
    <g id="xtick_23">
     <g id="line2d_32">
      <path clip-path="url(#p9111982107)" d="M 617.677342 738.053125 
L 617.677342 411.026562 
" style="fill:none;stroke:#ffffff;stroke-linecap:round;"/>
     </g>
     <g id="text_26">
      <!-- 3.0 -->
      <g style="fill:#262626;" transform="translate(610.032342 755.426719)scale(0.11 -0.11)">
       <use xlink:href="#ArialMT-51"/>
       <use x="55.615234" xlink:href="#ArialMT-46"/>
       <use x="83.398438" xlink:href="#ArialMT-48"/>
      </g>
     </g>
    </g>
    <g id="xtick_24">
     <g id="line2d_33">
      <path clip-path="url(#p9111982107)" d="M 655.282546 738.053125 
L 655.282546 411.026562 
" style="fill:none;stroke:#ffffff;stroke-linecap:round;"/>
     </g>
     <g id="text_27">
      <!-- 3.5 -->
      <g style="fill:#262626;" transform="translate(647.637546 755.426719)scale(0.11 -0.11)">
       <use xlink:href="#ArialMT-51"/>
       <use x="55.615234" xlink:href="#ArialMT-46"/>
       <use x="83.398438" xlink:href="#ArialMT-53"/>
      </g>
     </g>
    </g>
    <g id="xtick_25">
     <g id="line2d_34">
      <path clip-path="url(#p9111982107)" d="M 692.887749 738.053125 
L 692.887749 411.026562 
" style="fill:none;stroke:#ffffff;stroke-linecap:round;"/>
     </g>
     <g id="text_28">
      <!-- 4.0 -->
      <g style="fill:#262626;" transform="translate(685.242749 755.426719)scale(0.11 -0.11)">
       <use xlink:href="#ArialMT-52"/>
       <use x="55.615234" xlink:href="#ArialMT-46"/>
       <use x="83.398438" xlink:href="#ArialMT-48"/>
      </g>
     </g>
    </g>
    <g id="text_29">
     <!-- uniqueVoters -->
     <g style="fill:#262626;" transform="translate(504.447031 770.202344)scale(0.12 -0.12)">
      <use xlink:href="#ArialMT-117"/>
      <use x="55.615234" xlink:href="#ArialMT-110"/>
      <use x="111.230469" xlink:href="#ArialMT-105"/>
      <use x="133.447266" xlink:href="#ArialMT-113"/>
      <use x="189.0625" xlink:href="#ArialMT-117"/>
      <use x="244.677734" xlink:href="#ArialMT-101"/>
      <use x="300.292969" xlink:href="#ArialMT-86"/>
      <use x="361.492188" xlink:href="#ArialMT-111"/>
      <use x="417.107422" xlink:href="#ArialMT-116"/>
      <use x="444.890625" xlink:href="#ArialMT-101"/>
      <use x="500.505859" xlink:href="#ArialMT-114"/>
      <use x="533.806641" xlink:href="#ArialMT-115"/>
     </g>
    </g>
   </g>
   <g id="patch_8">
    <path d="M 377.303438 738.053125 
L 701.6425 738.053125 
" style="fill:none;stroke:#ffffff;stroke-linecap:square;stroke-linejoin:miter;stroke-width:1.25;"/>
   </g>
  </g>
  <g id="axes_4">
   <g id="patch_9">
    <path clip-path="url(#p0b988aa80f)" d="M 61.70706 405.026562 
L 94.468581 405.026562 
L 94.468581 387.72357 
L 61.70706 387.72357 
z
" style="fill:#4c72b0;fill-opacity:0.75;stroke:#ffffff;stroke-linejoin:miter;"/>
   </g>
   <g id="patch_10">
    <path clip-path="url(#p0b988aa80f)" d="M 94.468581 405.026562 
L 127.230103 405.026562 
L 127.230103 353.117584 
L 94.468581 353.117584 
z
" style="fill:#4c72b0;fill-opacity:0.75;stroke:#ffffff;stroke-linejoin:miter;"/>
   </g>
   <g id="patch_11">
    <path clip-path="url(#p0b988aa80f)" d="M 127.230103 405.026562 
L 159.991624 405.026562 
L 159.991624 214.693643 
L 127.230103 214.693643 
z
" style="fill:#4c72b0;fill-opacity:0.75;stroke:#ffffff;stroke-linejoin:miter;"/>
   </g>
   <g id="patch_12">
    <path clip-path="url(#p0b988aa80f)" d="M 159.991624 405.026562 
L 192.753146 405.026562 
L 192.753146 266.602621 
L 159.991624 266.602621 
z
" style="fill:#4c72b0;fill-opacity:0.75;stroke:#ffffff;stroke-linejoin:miter;"/>
   </g>
   <g id="patch_13">
    <path clip-path="url(#p0b988aa80f)" d="M 192.753146 405.026562 
L 225.514667 405.026562 
L 225.514667 110.875686 
L 192.753146 110.875686 
z
" style="fill:#4c72b0;fill-opacity:0.75;stroke:#ffffff;stroke-linejoin:miter;"/>
   </g>
   <g id="patch_14">
    <path clip-path="url(#p0b988aa80f)" d="M 225.514667 405.026562 
L 258.276188 405.026562 
L 258.276188 145.481672 
L 225.514667 145.481672 
z
" style="fill:#4c72b0;fill-opacity:0.75;stroke:#ffffff;stroke-linejoin:miter;"/>
   </g>
   <g id="patch_15">
    <path clip-path="url(#p0b988aa80f)" d="M 258.276188 405.026562 
L 291.03771 405.026562 
L 291.03771 231.996635 
L 258.276188 231.996635 
z
" style="fill:#4c72b0;fill-opacity:0.75;stroke:#ffffff;stroke-linejoin:miter;"/>
   </g>
   <g id="patch_16">
    <path clip-path="url(#p0b988aa80f)" d="M 291.03771 405.026562 
L 323.799231 405.026562 
L 323.799231 318.511599 
L 291.03771 318.511599 
z
" style="fill:#4c72b0;fill-opacity:0.75;stroke:#ffffff;stroke-linejoin:miter;"/>
   </g>
   <g id="patch_17">
    <path clip-path="url(#p0b988aa80f)" d="M 323.799231 405.026562 
L 356.560753 405.026562 
L 356.560753 353.117584 
L 323.799231 353.117584 
z
" style="fill:#4c72b0;fill-opacity:0.75;stroke:#ffffff;stroke-linejoin:miter;"/>
   </g>
  </g>
  <g id="axes_5">
   <g id="patch_18">
    <path clip-path="url(#p9111982107)" d="M 392.046122 738.053125 
L 428.902834 738.053125 
L 428.902834 720.750132 
L 392.046122 720.750132 
z
" style="fill:#4c72b0;fill-opacity:0.75;stroke:#ffffff;stroke-linejoin:miter;"/>
   </g>
   <g id="patch_19">
    <path clip-path="url(#p9111982107)" d="M 428.902834 738.053125 
L 465.759545 738.053125 
L 465.759545 720.750132 
L 428.902834 720.750132 
z
" style="fill:#4c72b0;fill-opacity:0.75;stroke:#ffffff;stroke-linejoin:miter;"/>
   </g>
   <g id="patch_20">
    <path clip-path="url(#p9111982107)" d="M 465.759545 738.053125 
L 502.616257 738.053125 
L 502.616257 582.32619 
L 465.759545 582.32619 
z
" style="fill:#4c72b0;fill-opacity:0.75;stroke:#ffffff;stroke-linejoin:miter;"/>
   </g>
   <g id="patch_21">
    <path clip-path="url(#p9111982107)" d="M 502.616257 738.053125 
L 539.472969 738.053125 
L 539.472969 616.932176 
L 502.616257 616.932176 
z
" style="fill:#4c72b0;fill-opacity:0.75;stroke:#ffffff;stroke-linejoin:miter;"/>
   </g>
   <g id="patch_22">
    <path clip-path="url(#p9111982107)" d="M 539.472969 738.053125 
L 576.32968 738.053125 
L 576.32968 478.508234 
L 539.472969 478.508234 
z
" style="fill:#4c72b0;fill-opacity:0.75;stroke:#ffffff;stroke-linejoin:miter;"/>
   </g>
   <g id="patch_23">
    <path clip-path="url(#p9111982107)" d="M 576.32968 738.053125 
L 613.186392 738.053125 
L 613.186392 426.599256 
L 576.32968 426.599256 
z
" style="fill:#4c72b0;fill-opacity:0.75;stroke:#ffffff;stroke-linejoin:miter;"/>
   </g>
   <g id="patch_24">
    <path clip-path="url(#p9111982107)" d="M 613.186392 738.053125 
L 650.043104 738.053125 
L 650.043104 478.508234 
L 613.186392 478.508234 
z
" style="fill:#4c72b0;fill-opacity:0.75;stroke:#ffffff;stroke-linejoin:miter;"/>
   </g>
   <g id="patch_25">
    <path clip-path="url(#p9111982107)" d="M 650.043104 738.053125 
L 686.899815 738.053125 
L 686.899815 616.932176 
L 650.043104 616.932176 
z
" style="fill:#4c72b0;fill-opacity:0.75;stroke:#ffffff;stroke-linejoin:miter;"/>
   </g>
  </g>
  <g id="text_30">
   <!-- Membership Size -->
   <g style="fill:#262626;" transform="translate(299.22475 17.68275)scale(0.144 -0.144)">
    <defs>
     <path d="M 7.421875 0 
L 7.421875 71.578125 
L 21.6875 71.578125 
L 38.625 20.90625 
Q 40.96875 13.8125 42.046875 10.296875 
Q 43.265625 14.203125 45.84375 21.78125 
L 62.984375 71.578125 
L 75.734375 71.578125 
L 75.734375 0 
L 66.609375 0 
L 66.609375 59.90625 
L 45.796875 0 
L 37.25 0 
L 16.546875 60.9375 
L 16.546875 0 
z
" id="ArialMT-77"/>
     <path d="M 6.59375 0 
L 6.59375 51.859375 
L 14.453125 51.859375 
L 14.453125 44.578125 
Q 16.890625 48.390625 20.9375 50.703125 
Q 25 53.03125 30.171875 53.03125 
Q 35.9375 53.03125 39.625 50.640625 
Q 43.3125 48.25 44.828125 43.953125 
Q 50.984375 53.03125 60.84375 53.03125 
Q 68.5625 53.03125 72.703125 48.75 
Q 76.859375 44.484375 76.859375 35.59375 
L 76.859375 0 
L 68.109375 0 
L 68.109375 32.671875 
Q 68.109375 37.9375 67.25 40.25 
Q 66.40625 42.578125 64.15625 43.984375 
Q 61.921875 45.40625 58.890625 45.40625 
Q 53.421875 45.40625 49.796875 41.765625 
Q 46.1875 38.140625 46.1875 30.125 
L 46.1875 0 
L 37.40625 0 
L 37.40625 33.6875 
Q 37.40625 39.546875 35.25 42.46875 
Q 33.109375 45.40625 28.21875 45.40625 
Q 24.515625 45.40625 21.359375 43.453125 
Q 18.21875 41.5 16.796875 37.734375 
Q 15.375 33.984375 15.375 26.90625 
L 15.375 0 
z
" id="ArialMT-109"/>
     <path d="M 14.703125 0 
L 6.546875 0 
L 6.546875 71.578125 
L 15.328125 71.578125 
L 15.328125 46.046875 
Q 20.90625 53.03125 29.546875 53.03125 
Q 34.328125 53.03125 38.59375 51.09375 
Q 42.875 49.171875 45.625 45.671875 
Q 48.390625 42.1875 49.953125 37.25 
Q 51.515625 32.328125 51.515625 26.703125 
Q 51.515625 13.375 44.921875 6.09375 
Q 38.328125 -1.171875 29.109375 -1.171875 
Q 19.921875 -1.171875 14.703125 6.5 
z
M 14.59375 26.3125 
Q 14.59375 17 17.140625 12.84375 
Q 21.296875 6.0625 28.375 6.0625 
Q 34.125 6.0625 38.328125 11.0625 
Q 42.53125 16.0625 42.53125 25.984375 
Q 42.53125 36.140625 38.5 40.96875 
Q 34.46875 45.796875 28.765625 45.796875 
Q 23 45.796875 18.796875 40.796875 
Q 14.59375 35.796875 14.59375 26.3125 
z
" id="ArialMT-98"/>
     <path d="M 6.59375 0 
L 6.59375 71.578125 
L 15.375 71.578125 
L 15.375 45.90625 
Q 21.53125 53.03125 30.90625 53.03125 
Q 36.671875 53.03125 40.921875 50.75 
Q 45.171875 48.484375 47 44.484375 
Q 48.828125 40.484375 48.828125 32.859375 
L 48.828125 0 
L 40.046875 0 
L 40.046875 32.859375 
Q 40.046875 39.453125 37.1875 42.453125 
Q 34.328125 45.453125 29.109375 45.453125 
Q 25.203125 45.453125 21.75 43.421875 
Q 18.3125 41.40625 16.84375 37.9375 
Q 15.375 34.46875 15.375 28.375 
L 15.375 0 
z
" id="ArialMT-104"/>
     <path d="M 6.59375 -19.875 
L 6.59375 51.859375 
L 14.59375 51.859375 
L 14.59375 45.125 
Q 17.4375 49.078125 21 51.046875 
Q 24.5625 53.03125 29.640625 53.03125 
Q 36.28125 53.03125 41.359375 49.609375 
Q 46.4375 46.1875 49.015625 39.953125 
Q 51.609375 33.734375 51.609375 26.3125 
Q 51.609375 18.359375 48.75 11.984375 
Q 45.90625 5.609375 40.453125 2.21875 
Q 35.015625 -1.171875 29 -1.171875 
Q 24.609375 -1.171875 21.109375 0.6875 
Q 17.625 2.546875 15.375 5.375 
L 15.375 -19.875 
z
M 14.546875 25.640625 
Q 14.546875 15.625 18.59375 10.84375 
Q 22.65625 6.0625 28.421875 6.0625 
Q 34.28125 6.0625 38.453125 11.015625 
Q 42.625 15.96875 42.625 26.375 
Q 42.625 36.28125 38.546875 41.203125 
Q 34.46875 46.140625 28.8125 46.140625 
Q 23.1875 46.140625 18.859375 40.890625 
Q 14.546875 35.640625 14.546875 25.640625 
z
" id="ArialMT-112"/>
     <path id="ArialMT-32"/>
     <path d="M 4.5 23 
L 13.421875 23.78125 
Q 14.0625 18.40625 16.375 14.96875 
Q 18.703125 11.53125 23.578125 9.40625 
Q 28.46875 7.28125 34.578125 7.28125 
Q 39.984375 7.28125 44.140625 8.890625 
Q 48.296875 10.5 50.3125 13.296875 
Q 52.34375 16.109375 52.34375 19.4375 
Q 52.34375 22.796875 50.390625 25.3125 
Q 48.4375 27.828125 43.953125 29.546875 
Q 41.0625 30.671875 31.203125 33.03125 
Q 21.34375 35.40625 17.390625 37.5 
Q 12.25 40.1875 9.734375 44.15625 
Q 7.234375 48.140625 7.234375 53.078125 
Q 7.234375 58.5 10.296875 63.203125 
Q 13.375 67.921875 19.28125 70.359375 
Q 25.203125 72.796875 32.421875 72.796875 
Q 40.375 72.796875 46.453125 70.234375 
Q 52.546875 67.671875 55.8125 62.6875 
Q 59.078125 57.71875 59.328125 51.421875 
L 50.25 50.734375 
Q 49.515625 57.515625 45.28125 60.984375 
Q 41.0625 64.453125 32.8125 64.453125 
Q 24.21875 64.453125 20.28125 61.296875 
Q 16.359375 58.15625 16.359375 53.71875 
Q 16.359375 49.859375 19.140625 47.359375 
Q 21.875 44.875 33.421875 42.265625 
Q 44.96875 39.65625 49.265625 37.703125 
Q 55.515625 34.8125 58.484375 30.390625 
Q 61.46875 25.984375 61.46875 20.21875 
Q 61.46875 14.5 58.203125 9.4375 
Q 54.9375 4.390625 48.796875 1.578125 
Q 42.671875 -1.21875 35.015625 -1.21875 
Q 25.296875 -1.21875 18.71875 1.609375 
Q 12.15625 4.4375 8.421875 10.125 
Q 4.6875 15.828125 4.5 23 
z
" id="ArialMT-83"/>
     <path d="M 1.953125 0 
L 1.953125 7.125 
L 34.96875 45.015625 
Q 29.34375 44.734375 25.046875 44.734375 
L 3.90625 44.734375 
L 3.90625 51.859375 
L 46.296875 51.859375 
L 46.296875 46.046875 
L 18.21875 13.140625 
L 12.796875 7.125 
Q 18.703125 7.5625 23.875 7.5625 
L 47.859375 7.5625 
L 47.859375 0 
z
" id="ArialMT-122"/>
    </defs>
    <use xlink:href="#ArialMT-77"/>
    <use x="83.300781" xlink:href="#ArialMT-101"/>
    <use x="138.916016" xlink:href="#ArialMT-109"/>
    <use x="222.216797" xlink:href="#ArialMT-98"/>
    <use x="277.832031" xlink:href="#ArialMT-101"/>
    <use x="333.447266" xlink:href="#ArialMT-114"/>
    <use x="366.748047" xlink:href="#ArialMT-115"/>
    <use x="416.748047" xlink:href="#ArialMT-104"/>
    <use x="472.363281" xlink:href="#ArialMT-105"/>
    <use x="494.580078" xlink:href="#ArialMT-112"/>
    <use x="550.195312" xlink:href="#ArialMT-32"/>
    <use x="577.978516" xlink:href="#ArialMT-83"/>
    <use x="644.677734" xlink:href="#ArialMT-105"/>
    <use x="666.894531" xlink:href="#ArialMT-122"/>
    <use x="716.894531" xlink:href="#ArialMT-101"/>
   </g>
  </g>
 </g>
 <defs>
  <clipPath id="p0b988aa80f">
   <rect height="327.026563" width="324.339062" x="46.964375" y="78"/>
  </clipPath>
  <clipPath id="pfc870bf8b5">
   <rect height="327.026563" width="324.339062" x="46.964375" y="411.026562"/>
  </clipPath>
  <clipPath id="p9111982107">
   <rect height="327.026563" width="324.339063" x="377.303438" y="411.026562"/>
  </clipPath>
 </defs>
</svg>
